<?xml version="1.0" encoding="UTF-8"?>
<!DOCTYPE svg PUBLIC "-//W3C//DTD SVG 1.1//EN" "http://www.w3.org/Graphics/SVG/1.1/DTD/svg11.dtd">
<!-- Creator: CorelDRAW 2020 (64-Bit) -->
<svg xmlns="http://www.w3.org/2000/svg" xml:space="preserve" width="90.2776mm" height="31.258mm" version="1.1" style="shape-rendering:geometricPrecision; text-rendering:geometricPrecision; image-rendering:optimizeQuality; fill-rule:evenodd; clip-rule:evenodd"
viewBox="0 0 7028.81 2433.68"
 xmlns:xlink="http://www.w3.org/1999/xlink"
 xmlns:xodm="http://www.corel.com/coreldraw/odm/2003">
 <defs>
  <style type="text/css">
   <![CDATA[
    .fil1 {fill:white}
    .fil0 {fill:white;fill-rule:nonzero}
   ]]>
  </style>
 </defs>
 <g id="Capa_x0020_1">
  <metadata id="CorelCorpID_0Corel-Layer"/>
  <path class="fil0" d="M1089.42 17.2l1029.52 591.24 0 1216.81 -1059.46 608.43c-353.17,-202.77 -706.33,-405.6 -1059.47,-608.43l0 -1216.81c353.16,-202.81 706.3,-405.65 1059.47,-608.43l29.94 17.2zm439.66 391.09l-469.61 -269.68 -938.75 539.11 0 1078.26 938.75 539.11 938.75 -539.11 0 -1078.26 -469.15 -269.43z"/>
  <polygon class="fil0" points="866.25,867.32 866.25,1046.41 505.23,1229.65 865.65,1413.66 866.25,1590.81 342.79,1315.34 342.79,1142.6 "/>
  <path class="fil0" d="M2907.53 766.42l212.89 0c101.21,0 179.51,27.4 234.9,82.19 55.4,54.8 83.1,132.79 83.1,234 0,101.21 -27.7,179.35 -83.1,234.45 -55.39,55.09 -133.69,82.64 -234.9,82.64l-212.89 0 0 -633.29zm208.39 570.41c164.09,0 246.13,-84.74 246.13,-254.21 0,-168.87 -82.05,-253.31 -246.13,-253.31l-134.74 0 0 507.52 134.74 0z"/>
  <polygon id="1" class="fil0" points="3571.36,1399.71 3571.36,766.42 3971.98,766.42 3971.98,827.51 3644.12,827.51 3644.12,1047.58 3954.02,1047.58 3954.02,1108.67 3644.12,1108.67 3644.12,1338.63 3971.98,1338.63 3971.98,1399.71 "/>
  <polygon id="2" class="fil0" points="4554.06,766.42 4629.52,766.42 4352.85,1399.71 4289.07,1399.71 4012.41,766.42 4089.66,766.42 4321.41,1307.18 "/>
  <polygon id="3" class="fil0" points="4709.47,1399.71 4709.47,766.42 4783.12,766.42 4783.12,1336.83 5100.21,1336.83 5100.21,1399.71 "/>
  <path id="4" class="fil0" d="M5665.22 1399.71l-70.06 -162.59 -330.57 0 -70.06 162.59 -75.45 0 278.47 -633.29 63.77 0 278.47 633.29 -74.56 0zm-374.58 -223.67l278.47 0 -139.23 -324.28 -139.23 324.28z"/>
  <polygon id="5" class="fil0" points="6272.46,766.42 6341.63,766.42 6341.63,1399.71 6285.03,1399.71 5903.27,890.39 5903.27,1399.71 5834.11,1399.71 5834.11,766.42 5890.69,766.42 6272.46,1275.75 "/>
  <path id="6" class="fil0" d="M6497.93 766.42l212.89 0c101.21,0 179.51,27.4 234.9,82.19 55.4,54.8 83.1,132.79 83.1,234 0,101.21 -27.7,179.35 -83.1,234.45 -55.39,55.09 -133.69,82.64 -234.9,82.64l-212.89 0 0 -633.29zm208.39 570.41c164.09,0 246.13,-84.74 246.13,-254.21 0,-168.87 -82.05,-253.31 -246.13,-253.31l-134.74 0 0 507.52 134.74 0z"/>
  <polygon class="fil0" points="2905.04,1717.56 2905.04,1613.5 2928.07,1613.5 2928.07,1698.81 2974.56,1698.81 2974.56,1717.56 "/>
  <polygon id="1" class="fil0" points="3094.8,1717.56 3094.8,1613.5 3166.53,1613.5 3166.53,1631.36 3117.23,1631.36 3117.23,1655.71 3163.58,1655.71 3163.58,1673.58 3117.23,1673.58 3117.23,1699.7 3166.53,1699.7 3166.53,1717.56 "/>
  <path id="2" class="fil0" d="M3366.91 1717.56l-9.89 -23.02 -48.41 0 -9.89 23.02 -23.18 0 47.83 -104.06 18.44 0 47.82 104.06 -22.73 0zm-50.77 -40.44l33.35 0 -16.68 -38.97 -16.68 38.97z"/>
  <path id="3" class="fil0" d="M3505.01 1613.5l40.44 0c11.32,0 21.06,2.07 29.23,6.21 8.17,4.13 14.41,10.08 18.74,17.85 4.33,7.78 6.49,17.07 6.49,27.9 0,10.82 -2.14,20.15 -6.42,27.97 -4.28,7.82 -10.5,13.8 -18.67,17.93 -8.17,4.13 -17.96,6.2 -29.38,6.2l-40.44 0 0 -104.06zm38.82 85.46c22.13,0 33.21,-11.16 33.21,-33.5 0,-22.24 -11.07,-33.35 -33.21,-33.35l-15.8 0 0 66.86 15.8 0z"/>
  <polygon id="4" class="fil0" points="3724.28,1717.56 3724.28,1613.5 3747.3,1613.5 3747.3,1717.56 "/>
  <polygon id="5" class="fil0" points="3943.4,1613.5 3964.95,1613.5 3964.95,1717.56 3947.83,1717.56 3896.02,1651.28 3896.02,1717.56 3874.62,1717.56 3874.62,1613.5 3891.59,1613.5 3943.4,1679.48 "/>
  <path id="6" class="fil0" d="M4181.72 1660.14l0 50.92c-5.02,2.46 -10.92,4.38 -17.71,5.75 -6.79,1.38 -13.77,2.07 -20.96,2.07 -11.02,0 -20.56,-2.14 -28.63,-6.42 -8.07,-4.28 -14.27,-10.43 -18.6,-18.45 -4.33,-8.02 -6.49,-17.53 -6.49,-28.56 0,-10.82 2.14,-20.24 6.42,-28.26 4.28,-8.02 10.41,-14.19 18.38,-18.52 7.96,-4.33 17.27,-6.49 27.89,-6.49 7.48,0 14.44,1.03 20.89,3.1 6.45,2.06 11.78,4.92 16.02,8.56l-7.23 16.39c-4.82,-3.45 -9.52,-5.93 -14.1,-7.46 -4.57,-1.53 -9.51,-2.29 -14.83,-2.29 -20.07,0 -30.11,11.66 -30.11,34.98 0,12.01 2.61,20.96 7.82,26.86 5.22,5.91 13.09,8.86 23.61,8.86 5.71,0 11.37,-0.74 16.97,-2.22l0 -22.87 -20.37 0 0 -15.94 41.03 0z"/>
  <polygon id="7" class="fil0" points="4489.45,1717.56 4489.45,1613.5 4512.47,1613.5 4512.47,1717.56 "/>
  <polygon id="8" class="fil0" points="4708.57,1613.5 4730.12,1613.5 4730.12,1717.56 4713,1717.56 4661.19,1651.28 4661.19,1717.56 4639.79,1717.56 4639.79,1613.5 4656.76,1613.5 4708.57,1679.48 "/>
  <polygon id="9" class="fil0" points="4926.22,1613.5 4947.77,1613.5 4947.77,1717.56 4930.65,1717.56 4878.85,1651.28 4878.85,1717.56 4857.44,1717.56 4857.44,1613.5 4874.42,1613.5 4926.22,1679.48 "/>
  <path id="10" class="fil0" d="M5122.91 1718.89c-10.33,0 -19.31,-2.2 -26.94,-6.57 -7.62,-4.38 -13.5,-10.58 -17.63,-18.6 -4.13,-8.02 -6.2,-17.44 -6.2,-28.26 0,-10.82 2.06,-20.24 6.2,-28.26 4.13,-8.02 10.01,-14.19 17.63,-18.52 7.63,-4.33 16.61,-6.49 26.94,-6.49 10.33,0 19.31,2.16 26.94,6.49 7.62,4.33 13.5,10.5 17.63,18.52 4.13,8.02 6.2,17.44 6.2,28.26 0,10.82 -2.06,20.24 -6.2,28.26 -4.13,8.02 -10.01,14.22 -17.63,18.6 -7.63,4.38 -16.61,6.57 -26.94,6.57zm0 -17.86c8.66,0 15.47,-3.05 20.45,-9.16 4.97,-6.1 7.45,-14.9 7.45,-26.42 0,-11.51 -2.46,-20.29 -7.38,-26.35 -4.92,-6.05 -11.76,-9.08 -20.52,-9.08 -8.76,0 -15.57,3.03 -20.44,9.08 -4.87,6.06 -7.31,14.84 -7.31,26.35 0,11.52 2.46,20.32 7.38,26.42 4.92,6.1 11.71,9.16 20.37,9.16z"/>
  <polygon id="11" class="fil0" points="5371.12,1613.5 5394.44,1613.5 5347.65,1717.56 5329.2,1717.56 5282.27,1613.5 5306.18,1613.5 5338.64,1688.92 "/>
  <path id="12" class="fil0" d="M5578.14 1717.56l-9.89 -23.02 -48.41 0 -9.89 23.02 -23.18 0 47.83 -104.06 18.44 0 47.82 104.06 -22.73 0zm-50.77 -40.44l33.35 0 -16.68 -38.97 -16.68 38.97z"/>
  <polygon id="13" class="fil0" points="5727.01,1717.56 5727.01,1632.25 5694.39,1632.25 5694.39,1613.5 5782.66,1613.5 5782.66,1632.25 5750.04,1632.25 5750.04,1717.56 "/>
  <polygon id="14" class="fil0" points="5901.41,1717.56 5901.41,1613.5 5924.44,1613.5 5924.44,1717.56 "/>
  <path id="15" class="fil0" d="M6099.58 1718.89c-10.33,0 -19.31,-2.2 -26.94,-6.57 -7.62,-4.38 -13.5,-10.58 -17.63,-18.6 -4.13,-8.02 -6.2,-17.44 -6.2,-28.26 0,-10.82 2.06,-20.24 6.2,-28.26 4.13,-8.02 10.01,-14.19 17.63,-18.52 7.63,-4.33 16.61,-6.49 26.94,-6.49 10.33,0 19.31,2.16 26.94,6.49 7.62,4.33 13.5,10.5 17.63,18.52 4.13,8.02 6.2,17.44 6.2,28.26 0,10.82 -2.06,20.24 -6.2,28.26 -4.13,8.02 -10.01,14.22 -17.63,18.6 -7.63,4.38 -16.61,6.57 -26.94,6.57zm0 -17.86c8.66,0 15.47,-3.05 20.45,-9.16 4.97,-6.1 7.45,-14.9 7.45,-26.42 0,-11.51 -2.46,-20.29 -7.38,-26.35 -4.92,-6.05 -11.76,-9.08 -20.52,-9.08 -8.76,0 -15.57,3.03 -20.44,9.08 -4.87,6.06 -7.31,14.84 -7.31,26.35 0,11.52 2.46,20.32 7.38,26.42 4.92,6.1 11.71,9.16 20.37,9.16z"/>
  <polygon id="16" class="fil0" points="6343.35,1613.5 6364.9,1613.5 6364.9,1717.56 6347.78,1717.56 6295.97,1651.28 6295.97,1717.56 6274.57,1717.56 6274.57,1613.5 6291.54,1613.5 6343.35,1679.48 "/>
  <rect class="fil1" transform="matrix(0.439496 -0 -0.0827052 0.439496 1108.08 725.065)" width="257.5" height="2302.04"/>
  <rect class="fil1" x="2531.5" y="257.67" width="70.17" height="1951.05"/>
  <polygon class="fil0" points="1268.52,867.32 1268.52,1046.41 1629.54,1229.65 1269.12,1413.66 1268.52,1590.81 1791.99,1315.34 1791.99,1142.6 "/>
 </g>
</svg>
