<?xml version="1.0" encoding="UTF-8"?>
<!DOCTYPE svg PUBLIC "-//W3C//DTD SVG 1.1//EN" "http://www.w3.org/Graphics/SVG/1.1/DTD/svg11.dtd">
<!-- Creator: CorelDRAW 2020 (64-Bit) -->
<svg xmlns="http://www.w3.org/2000/svg" xml:space="preserve" width="117.675mm" height="47.5605mm" version="1.1" style="shape-rendering:geometricPrecision; text-rendering:geometricPrecision; image-rendering:optimizeQuality; fill-rule:evenodd; clip-rule:evenodd"
viewBox="0 0 9811.39 3965.45"
 xmlns:xlink="http://www.w3.org/1999/xlink"
 xmlns:xodm="http://www.corel.com/coreldraw/odm/2003">
 <defs>
  <style type="text/css">
   <![CDATA[
    .str0 {stroke:#373435;stroke-width:16.68;stroke-miterlimit:22.9256}
    .fil0 {fill:black}
    .fil2 {fill:white}
    .fil1 {fill:white;fill-rule:nonzero}
   ]]>
  </style>
 </defs>
 <g id="Capa_x0020_1">
  <metadata id="CorelCorpID_0Corel-Layer"/>
  <rect class="fil0 str0" x="8.33" y="8.33" width="9794.72" height="3948.78"/>
  <path class="fil1" d="M2216.54 704.19l1102.5 633.15 0 1303.07 -1134.57 651.57c-378.21,-217.15 -756.4,-434.35 -1134.58,-651.57l0 -1303.07c378.2,-217.19 756.37,-434.41 1134.58,-651.57l32.07 18.42zm470.83 418.81l-502.9 -288.8 -1005.3 577.33 0 1154.7 1005.3 577.33 1005.3 -577.33 0 -1154.7 -502.4 -288.53z"/>
  <polygon class="fil1" points="1977.55,1614.58 1977.55,1806.36 1590.94,2002.59 1976.91,2199.65 1977.55,2389.36 1416.98,2094.35 1416.98,1909.37 "/>
  <path class="fil1" d="M4163.54 1506.53l227.98 0c108.38,0 192.23,29.34 251.55,88.02 59.32,58.68 88.99,142.21 88.99,250.59 0,108.38 -29.67,192.07 -88.99,251.07 -59.31,59 -143.17,88.5 -251.55,88.5l-227.98 0 0 -678.18zm223.17 610.84c175.72,0 263.58,-90.75 263.58,-272.23 0,-180.84 -87.86,-271.27 -263.58,-271.27l-144.29 0 0 543.5 144.29 0z"/>
  <polygon id="1" class="fil1" points="4874.42,2184.71 4874.42,1506.53 5303.44,1506.53 5303.44,1571.95 4952.33,1571.95 4952.33,1807.62 5284.21,1807.62 5284.21,1873.04 4952.33,1873.04 4952.33,2119.3 5303.44,2119.3 5303.44,2184.71 "/>
  <polygon id="2" class="fil1" points="5926.79,1506.53 6007.59,1506.53 5711.31,2184.71 5643.01,2184.71 5346.73,1506.53 5429.46,1506.53 5677.64,2085.63 "/>
  <polygon id="3" class="fil1" points="6093.21,2184.71 6093.21,1506.53 6172.08,1506.53 6172.08,2117.38 6511.65,2117.38 6511.65,2184.71 "/>
  <path id="4" class="fil1" d="M7116.72 2184.71l-75.03 -174.12 -354 0 -75.03 174.12 -80.8 0 298.21 -678.18 68.29 0 298.21 678.18 -79.84 0zm-401.13 -239.53l298.21 0 -149.1 -347.27 -149.1 347.27z"/>
  <polygon id="5" class="fil1" points="7767,1506.53 7841.07,1506.53 7841.07,2184.71 7780.46,2184.71 7371.63,1639.28 7371.63,2184.71 7297.57,2184.71 7297.57,1506.53 7358.17,1506.53 7767,2051.96 "/>
  <path id="6" class="fil1" d="M8008.45 1506.53l227.98 0c108.38,0 192.23,29.34 251.55,88.02 59.32,58.68 88.99,142.21 88.99,250.59 0,108.38 -29.67,192.07 -88.99,251.07 -59.31,59 -143.17,88.5 -251.55,88.5l-227.98 0 0 -678.18zm223.17 610.84c175.72,0 263.58,-90.75 263.58,-272.23 0,-180.84 -87.86,-271.27 -263.58,-271.27l-144.29 0 0 543.5 144.29 0z"/>
  <polygon class="fil1" points="4160.87,2525.09 4160.87,2413.66 4185.52,2413.66 4185.52,2505.01 4235.32,2505.01 4235.32,2525.09 "/>
  <polygon id="1" class="fil1" points="4364.08,2525.09 4364.08,2413.66 4440.89,2413.66 4440.89,2432.78 4388.1,2432.78 4388.1,2458.86 4437.73,2458.86 4437.73,2477.99 4388.1,2477.99 4388.1,2505.96 4440.89,2505.96 4440.89,2525.09 "/>
  <path id="2" class="fil1" d="M4655.48 2525.09l-10.59 -24.65 -51.84 0 -10.59 24.65 -24.82 0 51.22 -111.43 19.75 0 51.21 111.43 -24.34 0zm-54.37 -43.31l35.72 0 -17.86 -41.73 -17.86 41.73z"/>
  <path id="3" class="fil1" d="M4803.36 2413.66l43.31 0c12.12,0 22.55,2.22 31.3,6.65 8.75,4.42 15.43,10.8 20.07,19.12 4.64,8.33 6.95,18.28 6.95,29.87 0,11.59 -2.29,21.58 -6.87,29.96 -4.59,8.37 -11.25,14.77 -19.99,19.2 -8.75,4.43 -19.24,6.64 -31.46,6.64l-43.31 0 0 -111.43zm41.57 91.51c23.7,0 35.56,-11.96 35.56,-35.88 0,-23.81 -11.86,-35.72 -35.56,-35.72l-16.92 0 0 71.6 16.92 0z"/>
  <polygon id="4" class="fil1" points="5038.18,2525.09 5038.18,2413.66 5062.83,2413.66 5062.83,2525.09 "/>
  <polygon id="5" class="fil1" points="5272.84,2413.66 5295.91,2413.66 5295.91,2525.09 5277.58,2525.09 5222.1,2454.12 5222.1,2525.09 5199.18,2525.09 5199.18,2413.66 5217.36,2413.66 5272.84,2484.31 "/>
  <path id="6" class="fil1" d="M5528.04 2463.61l0 54.53c-5.38,2.63 -11.7,4.69 -18.97,6.16 -7.27,1.48 -14.75,2.22 -22.45,2.22 -11.8,0 -22.02,-2.29 -30.66,-6.88 -8.65,-4.59 -15.28,-11.17 -19.92,-19.76 -4.64,-8.59 -6.95,-18.78 -6.95,-30.58 0,-11.59 2.29,-21.68 6.87,-30.27 4.59,-8.59 11.15,-15.2 19.69,-19.84 8.53,-4.64 18.49,-6.95 29.87,-6.95 8.01,0 15.47,1.1 22.37,3.32 6.9,2.21 12.61,5.27 17.15,9.16l-7.75 17.55c-5.16,-3.69 -10.2,-6.35 -15.1,-7.99 -4.89,-1.63 -10.19,-2.45 -15.88,-2.45 -21.49,0 -32.24,12.49 -32.24,37.46 0,12.86 2.79,22.45 8.38,28.77 5.59,6.33 14.02,9.49 25.29,9.49 6.11,0 12.17,-0.79 18.18,-2.38l0 -24.5 -21.81 0 0 -17.07 43.94 0z"/>
  <polygon id="7" class="fil1" points="5857.59,2525.09 5857.59,2413.66 5882.25,2413.66 5882.25,2525.09 "/>
  <polygon id="8" class="fil1" points="6092.25,2413.66 6115.33,2413.66 6115.33,2525.09 6096.99,2525.09 6041.51,2454.12 6041.51,2525.09 6018.59,2525.09 6018.59,2413.66 6036.77,2413.66 6092.25,2484.31 "/>
  <polygon id="9" class="fil1" points="6325.33,2413.66 6348.41,2413.66 6348.41,2525.09 6330.07,2525.09 6274.59,2454.12 6274.59,2525.09 6251.67,2525.09 6251.67,2413.66 6269.85,2413.66 6325.33,2484.31 "/>
  <path id="10" class="fil1" d="M6535.96 2526.51c-11.06,0 -20.68,-2.35 -28.85,-7.04 -8.16,-4.69 -14.46,-11.33 -18.88,-19.92 -4.43,-8.59 -6.64,-18.68 -6.64,-30.27 0,-11.59 2.21,-21.68 6.64,-30.27 4.43,-8.59 10.72,-15.2 18.88,-19.84 8.17,-4.64 17.78,-6.95 28.85,-6.95 11.06,0 20.68,2.32 28.85,6.95 8.16,4.64 14.46,11.25 18.88,19.84 4.43,8.59 6.64,18.68 6.64,30.27 0,11.59 -2.21,21.68 -6.64,30.27 -4.43,8.59 -10.72,15.23 -18.88,19.92 -8.17,4.69 -17.78,7.04 -28.85,7.04zm0 -19.13c9.27,0 16.57,-3.27 21.89,-9.81 5.32,-6.53 7.98,-15.96 7.98,-28.29 0,-12.32 -2.63,-21.73 -7.9,-28.21 -5.27,-6.48 -12.59,-9.72 -21.97,-9.72 -9.38,0 -16.68,3.24 -21.89,9.72 -5.22,6.49 -7.83,15.89 -7.83,28.21 0,12.33 2.63,21.76 7.9,28.29 5.27,6.54 12.54,9.81 21.81,9.81z"/>
  <polygon id="11" class="fil1" points="6801.76,2413.66 6826.73,2413.66 6776.63,2525.09 6756.87,2525.09 6706.61,2413.66 6732.22,2413.66 6766.98,2494.42 "/>
  <path id="12" class="fil1" d="M7023.46 2525.09l-10.59 -24.65 -51.84 0 -10.59 24.65 -24.82 0 51.22 -111.43 19.75 0 51.21 111.43 -24.34 0zm-54.37 -43.31l35.72 0 -17.86 -41.73 -17.86 41.73z"/>
  <polygon id="13" class="fil1" points="7182.89,2525.09 7182.89,2433.73 7147.95,2433.73 7147.95,2413.66 7242.47,2413.66 7242.47,2433.73 7207.54,2433.73 7207.54,2525.09 "/>
  <polygon id="14" class="fil1" points="7369.65,2525.09 7369.65,2413.66 7394.3,2413.66 7394.3,2525.09 "/>
  <path id="15" class="fil1" d="M7581.86 2526.51c-11.06,0 -20.68,-2.35 -28.85,-7.04 -8.16,-4.69 -14.46,-11.33 -18.88,-19.92 -4.43,-8.59 -6.64,-18.68 -6.64,-30.27 0,-11.59 2.21,-21.68 6.64,-30.27 4.43,-8.59 10.72,-15.2 18.88,-19.84 8.17,-4.64 17.78,-6.95 28.85,-6.95 11.06,0 20.68,2.32 28.85,6.95 8.16,4.64 14.46,11.25 18.88,19.84 4.43,8.59 6.64,18.68 6.64,30.27 0,11.59 -2.21,21.68 -6.64,30.27 -4.43,8.59 -10.72,15.23 -18.88,19.92 -8.17,4.69 -17.78,7.04 -28.85,7.04zm0 -19.13c9.27,0 16.57,-3.27 21.89,-9.81 5.32,-6.53 7.98,-15.96 7.98,-28.29 0,-12.32 -2.63,-21.73 -7.9,-28.21 -5.27,-6.48 -12.59,-9.72 -21.97,-9.72 -9.38,0 -16.68,3.24 -21.89,9.72 -5.22,6.49 -7.83,15.89 -7.83,28.21 0,12.33 2.63,21.76 7.9,28.29 5.27,6.54 12.54,9.81 21.81,9.81z"/>
  <polygon id="16" class="fil1" points="7842.91,2413.66 7865.99,2413.66 7865.99,2525.09 7847.66,2525.09 7792.18,2454.12 7792.18,2525.09 7769.26,2525.09 7769.26,2413.66 7787.43,2413.66 7842.91,2484.31 "/>
  <rect class="fil2" transform="matrix(0.439496 -0 -0.0827052 0.439496 2236.52 1462.24)" width="275.75" height="2465.23"/>
  <rect class="fil2" x="3760.84" y="961.71" width="75.14" height="2089.35"/>
  <polygon class="fil1" points="2408.34,1614.58 2408.34,1806.36 2794.95,2002.59 2408.98,2199.65 2408.34,2389.36 2968.91,2094.35 2968.91,1909.37 "/>
 </g>
</svg>
