<?xml version="1.0" encoding="UTF-8"?>
<!DOCTYPE svg PUBLIC "-//W3C//DTD SVG 1.1//EN" "http://www.w3.org/Graphics/SVG/1.1/DTD/svg11.dtd">
<!-- Creator: CorelDRAW 2020 (64-Bit) -->
<svg xmlns="http://www.w3.org/2000/svg" xml:space="preserve" width="90.2776mm" height="31.258mm" version="1.1" style="shape-rendering:geometricPrecision; text-rendering:geometricPrecision; image-rendering:optimizeQuality; fill-rule:evenodd; clip-rule:evenodd"
viewBox="0 0 7337.89 2540.69"
 xmlns:xlink="http://www.w3.org/1999/xlink"
 xmlns:xodm="http://www.corel.com/coreldraw/odm/2003">
 <defs>
  <style type="text/css">
   <![CDATA[
    .fil1 {fill:black}
    .fil0 {fill:black;fill-rule:nonzero}
   ]]>
  </style>
 </defs>
 <g id="Capa_x0020_1">
  <metadata id="CorelCorpID_0Corel-Layer"/>
  <path class="fil0" d="M1137.32 17.95l1074.79 617.23 0 1270.32 -1106.05 635.19c-368.71,-211.7 -737.39,-423.44 -1106.06,-635.19l0 -1270.32c368.69,-211.72 737.35,-423.48 1106.06,-635.18l31.26 17.95zm459 408.29l-490.26 -281.55 -980.04 562.82 0 1125.67 980.04 562.82 980.03 -562.82 0 -1125.67 -489.78 -281.27z"/>
  <polygon class="fil0" points="904.34,905.46 904.34,1092.42 527.45,1283.72 903.72,1475.83 904.34,1660.77 357.86,1373.18 357.86,1192.84 "/>
  <path class="fil0" d="M3035.39 800.13l222.25 0c105.66,0 187.4,28.6 245.23,85.81 57.83,57.21 86.75,138.63 86.75,244.29 0,105.66 -28.92,187.24 -86.75,244.76 -57.82,57.51 -139.57,86.27 -245.23,86.27l-222.25 0 0 -661.13zm217.56 595.49c171.3,0 256.95,-88.47 256.95,-265.39 0,-176.3 -85.65,-264.45 -256.95,-264.45l-140.67 0 0 529.84 140.67 0z"/>
  <polygon id="1" class="fil0" points="3728.4,1461.26 3728.4,800.13 4146.64,800.13 4146.64,863.9 3804.36,863.9 3804.36,1093.65 4127.89,1093.65 4127.89,1157.42 3804.36,1157.42 3804.36,1397.5 4146.64,1397.5 4146.64,1461.26 "/>
  <polygon id="2" class="fil0" points="4754.32,800.13 4833.1,800.13 4544.25,1461.26 4477.68,1461.26 4188.84,800.13 4269.49,800.13 4511.43,1364.67 "/>
  <polygon id="3" class="fil0" points="4916.56,1461.26 4916.56,800.13 4993.45,800.13 4993.45,1395.62 5324.48,1395.62 5324.48,1461.26 "/>
  <path id="4" class="fil0" d="M5914.34 1461.26l-73.15 -169.74 -345.1 0 -73.15 169.74 -78.77 0 290.71 -661.13 66.58 0 290.71 661.13 -77.84 0zm-391.05 -233.51l290.71 0 -145.36 -338.54 -145.36 338.54z"/>
  <polygon id="5" class="fil0" points="6548.28,800.13 6620.49,800.13 6620.49,1461.26 6561.41,1461.26 6162.85,929.54 6162.85,1461.26 6090.65,1461.26 6090.65,800.13 6149.72,800.13 6548.28,1331.84 "/>
  <path id="6" class="fil0" d="M6783.66 800.13l222.25 0c105.66,0 187.4,28.6 245.23,85.81 57.83,57.21 86.75,138.63 86.75,244.29 0,105.66 -28.92,187.24 -86.75,244.76 -57.82,57.51 -139.57,86.27 -245.23,86.27l-222.25 0 0 -661.13zm217.56 595.49c171.3,0 256.95,-88.47 256.95,-265.39 0,-176.3 -85.65,-264.45 -256.95,-264.45l-140.67 0 0 529.84 140.67 0z"/>
  <polygon class="fil0" points="3032.79,1793.08 3032.79,1684.45 3056.82,1684.45 3056.82,1773.51 3105.36,1773.51 3105.36,1793.08 "/>
  <polygon id="1" class="fil0" points="3230.89,1793.08 3230.89,1684.45 3305.77,1684.45 3305.77,1703.1 3254.3,1703.1 3254.3,1728.52 3302.69,1728.52 3302.69,1747.17 3254.3,1747.17 3254.3,1774.44 3305.77,1774.44 3305.77,1793.08 "/>
  <path id="2" class="fil0" d="M3514.96 1793.08l-10.32 -24.03 -50.54 0 -10.32 24.03 -24.2 0 49.93 -108.63 19.26 0 49.92 108.63 -23.73 0zm-53 -42.22l34.82 0 -17.41 -40.68 -17.41 40.68z"/>
  <path id="3" class="fil0" d="M3659.13 1684.45l42.22 0c11.82,0 21.99,2.16 30.51,6.48 8.53,4.31 15.05,10.53 19.56,18.64 4.52,8.12 6.78,17.83 6.78,29.12 0,11.3 -2.24,21.04 -6.7,29.2 -4.47,8.16 -10.96,14.4 -19.49,18.72 -8.53,4.32 -18.75,6.47 -30.67,6.47l-42.22 0 0 -108.63zm40.53 89.21c23.11,0 34.67,-11.66 34.67,-34.98 0,-23.21 -11.56,-34.82 -34.67,-34.82l-16.49 0 0 69.8 16.49 0z"/>
  <polygon id="4" class="fil0" points="3888.05,1793.08 3888.05,1684.45 3912.08,1684.45 3912.08,1793.08 "/>
  <polygon id="5" class="fil0" points="4116.8,1684.45 4139.3,1684.45 4139.3,1793.08 4121.43,1793.08 4067.34,1723.9 4067.34,1793.08 4045,1793.08 4045,1684.45 4062.72,1684.45 4116.8,1753.33 "/>
  <path id="6" class="fil0" d="M4365.6 1733.15l0 53.16c-5.24,2.57 -11.4,4.57 -18.49,6.01 -7.09,1.44 -14.38,2.16 -21.88,2.16 -11.5,0 -21.47,-2.24 -29.89,-6.71 -8.43,-4.47 -14.9,-10.89 -19.42,-19.26 -4.52,-8.37 -6.78,-18.3 -6.78,-29.81 0,-11.3 2.24,-21.13 6.7,-29.51 4.47,-8.37 10.87,-14.82 19.19,-19.34 8.32,-4.52 18.03,-6.78 29.11,-6.78 7.81,0 15.08,1.07 21.81,3.23 6.73,2.15 12.3,5.14 16.72,8.93l-7.55 17.11c-5.03,-3.6 -9.94,-6.19 -14.72,-7.79 -4.77,-1.59 -9.93,-2.39 -15.48,-2.39 -20.95,0 -31.43,12.18 -31.43,36.52 0,12.53 2.72,21.88 8.17,28.04 5.45,6.17 13.66,9.25 24.65,9.25 5.96,0 11.87,-0.77 17.72,-2.32l0 -23.88 -21.26 0 0 -16.64 42.84 0z"/>
  <polygon id="7" class="fil0" points="4686.86,1793.08 4686.86,1684.45 4710.9,1684.45 4710.9,1793.08 "/>
  <polygon id="8" class="fil0" points="4915.62,1684.45 4938.12,1684.45 4938.12,1793.08 4920.25,1793.08 4866.16,1723.9 4866.16,1793.08 4843.82,1793.08 4843.82,1684.45 4861.54,1684.45 4915.62,1753.33 "/>
  <polygon id="9" class="fil0" points="5142.84,1684.45 5165.34,1684.45 5165.34,1793.08 5147.47,1793.08 5093.38,1723.9 5093.38,1793.08 5071.04,1793.08 5071.04,1684.45 5088.76,1684.45 5142.84,1753.33 "/>
  <path id="10" class="fil0" d="M5348.18 1794.47c-10.79,0 -20.16,-2.29 -28.12,-6.86 -7.96,-4.57 -14.09,-11.05 -18.41,-19.42 -4.32,-8.37 -6.47,-18.21 -6.47,-29.51 0,-11.3 2.15,-21.13 6.47,-29.51 4.32,-8.37 10.45,-14.82 18.41,-19.34 7.97,-4.52 17.34,-6.78 28.12,-6.78 10.79,0 20.16,2.26 28.12,6.78 7.96,4.52 14.09,10.96 18.41,19.34 4.32,8.37 6.47,18.21 6.47,29.51 0,11.3 -2.15,21.13 -6.47,29.51 -4.32,8.37 -10.45,14.85 -18.41,19.42 -7.97,4.57 -17.34,6.86 -28.12,6.86zm0 -18.65c9.04,0 16.15,-3.19 21.34,-9.56 5.19,-6.36 7.78,-15.56 7.78,-27.58 0,-12.01 -2.57,-21.18 -7.71,-27.51 -5.14,-6.32 -12.27,-9.48 -21.42,-9.48 -9.14,0 -16.26,3.16 -21.34,9.48 -5.09,6.32 -7.63,15.49 -7.63,27.51 0,12.02 2.57,21.21 7.71,27.58 5.14,6.37 12.22,9.56 21.26,9.56z"/>
  <polygon id="11" class="fil0" points="5607.3,1684.45 5631.65,1684.45 5582.8,1793.08 5563.54,1793.08 5514.54,1684.45 5539.5,1684.45 5573.4,1763.19 "/>
  <path id="12" class="fil0" d="M5823.43 1793.08l-10.32 -24.03 -50.54 0 -10.32 24.03 -24.2 0 49.93 -108.63 19.26 0 49.92 108.63 -23.73 0zm-53 -42.22l34.82 0 -17.41 -40.68 -17.41 40.68z"/>
  <polygon id="13" class="fil0" points="5978.85,1793.08 5978.85,1704.02 5944.79,1704.02 5944.79,1684.45 6036.94,1684.45 6036.94,1704.02 6002.88,1704.02 6002.88,1793.08 "/>
  <polygon id="14" class="fil0" points="6160.92,1793.08 6160.92,1684.45 6184.95,1684.45 6184.95,1793.08 "/>
  <path id="15" class="fil0" d="M6367.79 1794.47c-10.79,0 -20.16,-2.29 -28.12,-6.86 -7.96,-4.57 -14.09,-11.05 -18.41,-19.42 -4.32,-8.37 -6.47,-18.21 -6.47,-29.51 0,-11.3 2.15,-21.13 6.47,-29.51 4.32,-8.37 10.45,-14.82 18.41,-19.34 7.97,-4.52 17.34,-6.78 28.12,-6.78 10.79,0 20.16,2.26 28.12,6.78 7.96,4.52 14.09,10.96 18.41,19.34 4.32,8.37 6.47,18.21 6.47,29.51 0,11.3 -2.15,21.13 -6.47,29.51 -4.32,8.37 -10.45,14.85 -18.41,19.42 -7.97,4.57 -17.34,6.86 -28.12,6.86zm0 -18.65c9.04,0 16.15,-3.19 21.34,-9.56 5.19,-6.36 7.78,-15.56 7.78,-27.58 0,-12.01 -2.57,-21.18 -7.71,-27.51 -5.14,-6.32 -12.27,-9.48 -21.42,-9.48 -9.14,0 -16.26,3.16 -21.34,9.48 -5.09,6.32 -7.63,15.49 -7.63,27.51 0,12.02 2.57,21.21 7.71,27.58 5.14,6.37 12.22,9.56 21.26,9.56z"/>
  <polygon id="16" class="fil0" points="6622.29,1684.45 6644.79,1684.45 6644.79,1793.08 6626.91,1793.08 6572.83,1723.9 6572.83,1793.08 6550.48,1793.08 6550.48,1684.45 6568.2,1684.45 6622.29,1753.33 "/>
  <rect class="fil1" transform="matrix(0.439496 -0 -0.0827052 0.439496 1156.81 756.947)" width="268.82" height="2403.27"/>
  <rect class="fil1" x="2642.81" y="269" width="73.25" height="2036.84"/>
  <polygon class="fil0" points="1324.3,905.46 1324.3,1092.42 1701.19,1283.72 1324.93,1475.83 1324.3,1660.77 1870.78,1373.18 1870.78,1192.84 "/>
 </g>
</svg>
